# xmcd
#
# Track frame offsets:
#	150
#	16425
#	48492
#	69897
#	101662
#	127485
#	145762
#	159184
#	175972
#	194855
#	208617
#
# Disc length: 3060 seconds
#
# Revision: 1
# Processed by: cddbd v1.4b42PL1 Copyright (c) Steve Scherf et al.
# Submitted via: audiograbber 1.80
#
DISCID=a30bf20b
DTITLE=Mister Jack - Sinais de Fumaça
DYEAR=1900
DGENRE=
TTITLE0=Orelha de Pato
TTITLE1=Sinais de Fumaça
TTITLE2=O Trem das Sete
TTITLE3=No Litoral de Maria Elisa
TTITLE4=Blues do Serra
TTITLE5=Os Tipos da Cidade
TTITLE6=Last Cigar
TTITLE7=Hideaway
TTITLE8=Pissed Off
TTITLE9=Basin Street Blues
TTITLE10=Microfones Abertos
EXTD=Brazilian Harmonica Blues Band\nwww.misterjack.cjb.net\nmrjack@mailbr.com.
EXTD=br
EXTT0=
EXTT1=
EXTT2=
EXTT3=
EXTT4=
EXTT5=
EXTT6=
EXTT7=
EXTT8=
EXTT9=
EXTT10=
PLAYORDER=
